PathFileType	4	(X/Y/Z)	E:\Marcel_BSc\Ayumi_22_01_2025\22-01-2025\static_00.trc
DataRate	CameraRate	NumFrames	NumMarkers	Units	OrigDataRate	OrigDataStartFrame	OrigNumFrames
200.0	200.0	4	59	mm	200.0	140	352	
Frame#	Time	FHD			LBHD			RBHD			RBAR			LBAR			RASI			RSACR			LSACR			LASI			USACR			C7			CLAV			T10			RSHO			LSHO			LTHI1			LTHI3			LTHI2			LLFC			LMFC			LTIB1			LTIB2			LTIB3			LMMAL			LLMAL			LHEE			LMT1			LMT5			LMT3			RTHI1			RTHI2			RTHI3			RLFC			RMFC			RTIB1			RTIB3			RTIB2			RLMAL			RMMAL			RHEE			RMT5			RMT1			RMT3			LMEP			LLEP			LDUPA			LMUPA			LUUPA			LUL			LRAD			LRFIN			RUL			RRAD			RUFIN			RMEP			RLEP			RMUPA			RDUPA			RUUPA			
		X1	Y1	Z1	X2	Y2	Z2	X3	Y3	Z3	X4	Y4	Z4	X5	Y5	Z5	X6	Y6	Z6	X7	Y7	Z7	X8	Y8	Z8	X9	Y9	Z9	X10	Y10	Z10	X11	Y11	Z11	X12	Y12	Z12	X13	Y13	Z13	X14	Y14	Z14	X15	Y15	Z15	X16	Y16	Z16	X17	Y17	Z17	X18	Y18	Z18	X19	Y19	Z19	X20	Y20	Z20	X21	Y21	Z21	X22	Y22	Z22	X23	Y23	Z23	X24	Y24	Z24	X25	Y25	Z25	X26	Y26	Z26	X27	Y27	Z27	X28	Y28	Z28	X29	Y29	Z29	X30	Y30	Z30	X31	Y31	Z31	X32	Y32	Z32	X33	Y33	Z33	X34	Y34	Z34	X35	Y35	Z35	X36	Y36	Z36	X37	Y37	Z37	X38	Y38	Z38	X39	Y39	Z39	X40	Y40	Z40	X41	Y41	Z41	X42	Y42	Z42	X43	Y43	Z43	X44	Y44	Z44	X45	Y45	Z45	X46	Y46	Z46	X47	Y47	Z47	X48	Y48	Z48	X49	Y49	Z49	X50	Y50	Z50	X51	Y51	Z51	X52	Y52	Z52	X53	Y53	Z53	X54	Y54	Z54	X55	Y55	Z55	X56	Y56	Z56	X57	Y57	Z57	X58	Y58	Z58	X59	Y59	Z59	
140	0.69	108.6664	1611.894	-969.01599	126.72129	1594.9922	-908.50812	145.27304	1583.6024	-1039.5126				1041.0044	20.013123	-2031.5935	161.90556	927.33496	-1103.1237	322.08563	958.85779	-1016.0036	319.00781	960.65417	-941.98859	148.47922	912.40088	-866.03442	314.24402	970.45184	-979.93738	297.13025	1401.2396	-964.61871	162.58163	1329.2466	-981.76111	319.66544	1117.4934	-974.22815	236.17442	1406.1287	-1113.687	215.59549	1398.4995	-831.74152	236.80882	606.43964	-807.87152	261.43805	546.09308	-819.10693	210.73392	545.7912	-818.29144	229.47681	449.30695	-841.01971	241.98463	442.12405	-939.6123	256.38458	233.62312	-819.7049	306.67532	232.55338	-815.62842	279.94238	173.52965	-825.85352	284.28897	71.818665	-914.70721	297.86615	69.632988	-843.43695	340.98987	33.997425	-881.71582	143.84828	39.141151	-873.70319	169.43143	26.82839	-796.98883	144.84151	37.246895	-837.71802	257.25577	608.01343	-1156.9691	229.43422	549.34912	-1149.3213	281.21732	547.72394	-1147.5255	239.99353	454.9953	-1125.7303	247.67491	449.28741	-1024.4525	271.12088	277.2843	-1159.8392	294.19601	215.28889	-1155.6361	321.8898	274.89789	-1160.6427	307.57669	73.611725	-1134.9446	276.85599	75.60952	-1063.9982	351.6012	28.390436	-1095.3651	178.77295	29.337048	-1179.4325	151.10176	37.702057	-1115.5308	156.17174	36.00816	-1148.2797	264.73108	1276.8485	-1374.9854	303.40842	1337.1753	-1378.2742	312.97806	1350.2825	-1278.4492	309.87311	1362.1675	-1218.1517	328.37109	1317.074	-1208.371	232.06592	1334.8768	-327.23926	168.16106	1352.9104	-320.05322	179.51451	1349.6328	-245.93747	282.73767	1338.2584	-1612.3569	222.40889	1354.4506	-1613.5203	221.72263	1351.2258	-1687.2551	203.01991	1278.5719	-581.41199	253.75885	1329.9238	-564.03839	252.67419	1361.7802	-644.9613	282.46805	1322.29	-640.63318	268.69653	1367.9575	-704.80322
141	0.695	108.62749	1611.8712	-969.01648	126.67078	1594.9834	-908.50311	145.24106	1583.6108	-1039.5009				1041.0065	20.032391	-2031.5552	161.91281	927.34674	-1103.1185	322.09973	958.83356	-1016.0237	319.0174	960.6554	-942.00543	148.49274	912.40192	-866.0202	314.27487	970.43762	-979.95947	297.09726	1401.2666	-964.62177	162.58157	1329.24	-981.74957	319.65488	1117.4987	-974.24139	236.15701	1406.1527	-1113.6823	215.57268	1398.5079	-831.74805	236.81996	606.43292	-807.86981	261.42874	546.10809	-819.10553	210.73828	545.80505	-818.29761	229.47141	449.30933	-841.02167	241.96559	442.13086	-939.62628	256.39664	233.60425	-819.71057	306.68066	232.52985	-815.62903	279.94614	173.54291	-825.85101	284.29623	71.798103	-914.71765	297.86014	69.633614	-843.4364	341.00412	33.978493	-881.73944	143.86609	39.182701	-873.67999	169.42671	26.841425	-796.99011	144.8519	37.239826	-837.73669	257.25064	608.01495	-1156.9756	229.4798	549.32031	-1149.3201	281.19815	547.73169	-1147.5345	239.99205	455.02032	-1125.7332	247.64519	449.30978	-1024.4729	271.11169	277.2951	-1159.8334	294.20767	215.28656	-1155.6296	321.96292	274.9678	-1160.7559	307.58099	73.612114	-1134.9436	276.83337	75.620445	-1063.9923	351.59189	28.40019	-1095.3531	178.78207	29.333794	-1179.4285	151.10144	37.714451	-1115.5458	156.16693	36.009312	-1148.2686	264.73834	1276.9044	-1374.9867	303.41245	1337.2133	-1378.2749	312.96344	1350.2977	-1278.4514	309.88547	1362.1688	-1218.1538	328.36133	1317.111	-1208.3613	232.03908	1334.9745	-327.23178	168.13626	1353.0295	-320.05673	179.56941	1349.7207	-245.90118	282.71564	1338.3651	-1612.3448	222.5295	1354.4021	-1613.0884	221.71143	1351.3295	-1687.2446	203.04131	1278.618	-581.38483	253.7829	1329.944	-564.03815	252.67332	1361.8242	-644.97424	282.478	1322.3229	-640.63965	268.66534	1367.9888	-704.82288
142	0.7	108.6082	1611.864	-969.00317	126.64093	1594.9374	-908.47845	145.10252	1583.6249	-1039.9009				1040.9977	20.047771	-2031.5624	161.89563	927.36566	-1103.1405	322.10962	958.84521	-1016.0346	319.02692	960.6568	-942.01569	148.4985	912.40759	-866.02954	314.29376	970.40399	-979.97803	297.0773	1401.2806	-964.60248	162.5784	1329.2324	-981.76031	319.68185	1117.5167	-974.23578	236.15799	1406.1385	-1113.6678	215.58263	1398.5118	-831.76172	236.80708	606.43683	-807.89948	261.42856	546.10388	-819.11603	210.73819	545.81641	-818.31427	229.48347	449.31079	-841.02826	241.97705	442.12286	-939.6358	256.42633	233.59465	-819.6925	306.68372	232.55826	-815.63116	279.92877	173.54694	-825.85468	284.29242	71.804817	-914.70441	297.86642	69.63456	-843.43494	340.99496	33.983864	-881.71643	143.86179	39.188568	-873.68103	169.43408	26.839041	-796.98944	144.84973	37.247902	-837.72198	257.26401	608.01215	-1156.9711	229.44814	549.31763	-1149.3381	281.19739	547.73358	-1147.5521	239.98697	455.01398	-1125.7395	247.65364	449.30417	-1024.4808	271.1185	277.28372	-1159.8267	294.23514	215.25604	-1155.6207	321.72525	274.78314	-1160.5076	307.57117	73.619797	-1134.9589	276.84372	75.617813	-1063.9926	351.59027	28.413141	-1095.3583	178.77534	29.363697	-1179.4197	151.09648	37.729404	-1115.5486	156.17035	36.004528	-1148.2661	264.73944	1276.9495	-1375.0001	303.3895	1337.2997	-1378.2661	312.97098	1350.2961	-1278.4513	309.87289	1362.1742	-1218.1664	328.35327	1317.1187	-1208.375	232.03876	1335.0674	-327.22937	168.22272	1352.9651	-320.00095	179.43654	1349.853	-245.95515	282.70297	1338.439	-1612.3417	222.74493	1354.2721	-1613.0865	221.68449	1351.4852	-1687.2081	203.0186	1278.6754	-581.37775	253.76976	1329.9962	-564.03564	252.64462	1361.8628	-644.9826	282.46548	1322.3575	-640.65765	268.62277	1367.9653	-704.85834
143	0.705	108.56507	1611.8572	-968.96362	126.6295	1594.8899	-908.44354	145.14751	1583.6309	-1039.4409				1040.9739	20.044386	-2031.5251	161.9106	927.35724	-1103.1189	322.13159	958.80182	-1016.0434	319.03003	960.66431	-942.01379	148.49661	912.40814	-866.05505	314.30206	970.40527	-979.98999	297.07523	1401.259	-964.60889	162.57167	1329.2275	-981.7641	319.69391	1117.5297	-974.23065	236.13635	1406.1603	-1113.6704	215.39255	1398.7471	-831.58618	236.80832	606.45258	-807.89764	261.44705	546.11902	-819.10168	210.74562	545.80383	-818.30475	229.48299	449.31393	-841.03369	241.96564	442.13324	-939.64435	256.44049	233.59816	-819.70386	306.67725	232.53181	-815.63898	279.94162	173.53543	-825.85345	284.32645	71.789345	-914.6958	297.86353	69.628807	-843.44031	340.99854	33.980869	-881.72015	143.86325	39.170551	-873.69312	169.42418	26.836693	-796.995	144.84373	37.261055	-837.71686	257.2619	607.9928	-1156.9922	229.40753	549.35699	-1149.3475	281.23404	547.69849	-1147.5438	239.99873	454.98969	-1125.754	247.63243	449.32233	-1024.4933	271.11536	277.28101	-1159.8439	294.21069	215.28879	-1155.6372	321.99039	274.94345	-1160.7743	307.56378	73.634567	-1134.9598	276.85306	75.612137	-1063.9995	351.60077	28.387747	-1095.3657	178.76515	29.360441	-1179.4323	151.10043	37.717815	-1115.5408	156.16956	36.004467	-1148.2723	264.73651	1276.9855	-1375.0216	303.37885	1337.3323	-1378.2679	312.95068	1350.3158	-1278.457	309.87659	1362.1949	-1218.1617	328.33911	1317.16	-1208.3644	232.02989	1335.1556	-327.22662	168.19383	1353.1069	-319.99359	179.43103	1349.9415	-245.95833	282.65573	1338.5934	-1612.3087	222.71672	1354.3463	-1613.101	221.67534	1351.5579	-1687.2118	203.02843	1278.7136	-581.37451	253.72768	1330.0525	-564.03302	252.63033	1361.902	-644.98669	282.45682	1322.3989	-640.66699	268.62531	1368.0347	-704.85437
